<mxfile host="app.diagrams.net" modified="2024-01-25T15:02:25.544Z" agent="Mozilla/5.0 (Windows NT 10.0; Win64; x64; rv:122.0) Gecko/20100101 Firefox/122.0" version="23.0.1" etag="K0_w3XABXpVAV5BWjeiQ" type="github">
  <diagram name="PÃ¡gina-1" id="vseAocXRvBt8k-fhNwxr">
    <mxGraphModel>
      <root>
        <mxCell id="0" />
        <mxCell id="1" parent="0" />
      </root>
    </mxGraphModel>
  </diagram>
</mxfile>
